<?xml version="1.0" encoding="utf-8"?>
<!-- Generator: Adobe Illustrator 19.1.0, SVG Export Plug-In . SVG Version: 6.00 Build 0)  -->
<!DOCTYPE svg PUBLIC "-//W3C//DTD SVG 1.1//EN" "http://www.w3.org/Graphics/SVG/1.1/DTD/svg11.dtd">
<svg version="1.1" id="Layer_1" xmlns="http://www.w3.org/2000/svg" xmlns:xlink="http://www.w3.org/1999/xlink" x="0px" y="0px"
	 viewBox="-461 229.3 70.9 69.7" style="enable-background:new -461 229.3 70.9 69.7;" xml:space="preserve">
<style type="text/css">
	.st0{fill:#2F302C;}
</style>
<g>
	<g>
		<path class="st0" d="M-439.2,283.3h1.2l0,1.8c0,0.9,0,1.9,0,2.8c0,0.3,0,0.7,0.1,0.9c0.2,0.7,0.8,1.4,1.5,1.7
			c0.8,0.3,1.7,0.2,2.5-0.3c3.1-1.9,6.3-3.8,9.4-5.6l1.6-1c0.3-0.2,0.8-0.3,1.2-0.3c5,0,9.9,0,14.9,0h4.5c1.7,0,2.8-1.1,2.8-2.8
			v-36.1c0-1.7-1.1-2.8-2.8-2.8h-46.2c-1.7,0-2.8,1.1-2.8,2.8v36.1c0,1.7,1.1,2.8,2.8,2.8H-439.2z M-432.8,283.4V278h-13.3v-31.3
			h41.2V278h-4.1c-4.9,0-9.7,0-14.6,0c-0.1,0-0.3,0-0.4,0.1c-1.9,1.1-3.7,2.2-5.6,3.3L-432.8,283.4z"/>
	</g>
	<g>
		<path class="st0" d="M-438,260h25.1v-5.2H-438V260z"/>
	</g>
	<g>
		<path class="st0" d="M-438,269.9h18.5v-5.2H-438V269.9z"/>
	</g>
</g>
</svg>
