<?xml version="1.0" encoding="utf-8"?>
<!-- Generator: Adobe Illustrator 19.1.0, SVG Export Plug-In . SVG Version: 6.00 Build 0)  -->
<!DOCTYPE svg PUBLIC "-//W3C//DTD SVG 1.1//EN" "http://www.w3.org/Graphics/SVG/1.1/DTD/svg11.dtd">
<svg version="1.1" id="Layer_1" xmlns="http://www.w3.org/2000/svg" xmlns:xlink="http://www.w3.org/1999/xlink" x="0px" y="0px"
	 viewBox="-465 274.6 28.4 13.6" style="enable-background:new -465 274.6 28.4 13.6;" xml:space="preserve">
<style type="text/css">
	.st0{fill:url(#SVGID_1_);}
</style>
<g>
	<linearGradient id="SVGID_1_" gradientUnits="userSpaceOnUse" x1="-464.8447" y1="281.3048" x2="-436.9178" y2="281.3048">
		<stop  offset="1.185826e-02" style="stop-color:#FC5959"/>
		<stop  offset="0.1017" style="stop-color:#F86865"/>
		<stop  offset="0.2735" style="stop-color:#EC8F85"/>
		<stop  offset="0.3717" style="stop-color:#E5A89A"/>
		<stop  offset="0.5092" style="stop-color:#DDB1A0"/>
		<stop  offset="0.7315" style="stop-color:#C9C9B2"/>
		<stop  offset="0.7576" style="stop-color:#C6CCB4"/>
		<stop  offset="0.9055" style="stop-color:#BFD6C5"/>
		<stop  offset="1" style="stop-color:#BADDD3"/>
	</linearGradient>
	<path class="st0" d="M-448.5,287.5c-1,0-2.5-0.3-3.9-2.2c-1.5-2-2-3.2-2.5-4.1c-0.2-0.4-0.3-0.7-0.5-1c-0.5-0.8-0.8-1-0.9-1.1
		c0,0.1-0.4,0.3-1,1.3c-1.7,2.8-3.4,4.4-5.1,4.7c-1.1,0.2-2.2-0.4-2.4-1.5c-0.3-1.1,0.4-2.2,1.5-2.4c0,0,0.9-0.2,2.5-2.9
		c1.3-2.1,2.8-3.2,4.4-3.2c2.4,0,3.8,2,4.3,2.8c0.3,0.5,0.6,0.9,0.8,1.4c0.4,0.8,0.9,1.8,2.2,3.5c0.3,0.4,0.6,0.5,0.6,0.5
		c0.3,0,1-0.6,1.2-0.9c0.9-1.8,3.7-3.2,5.4-2.7c0.3,0.1,0.5,0.1,0.4,0.1c0,0,0.3-0.4,0.6-1.4c0.3-1.1,1.5-1.7,2.5-1.3
		c1.1,0.3,1.7,1.5,1.3,2.5c-1.1,3.4-3,4.8-5.8,4.1c-0.3,0.1-0.8,0.4-1,0.6c-0.6,1.1-2.3,2.9-4.5,3.1
		C-448.3,287.5-448.4,287.5-448.5,287.5z"/>
</g>
</svg>
