<?xml version="1.0" encoding="utf-8"?>
<!-- Generator: Adobe Illustrator 19.1.0, SVG Export Plug-In . SVG Version: 6.00 Build 0)  -->
<!DOCTYPE svg PUBLIC "-//W3C//DTD SVG 1.1//EN" "http://www.w3.org/Graphics/SVG/1.1/DTD/svg11.dtd">
<svg version="1.1" id="Layer_1" xmlns="http://www.w3.org/2000/svg" xmlns:xlink="http://www.w3.org/1999/xlink" x="0px" y="0px"
	 viewBox="0 0 28.4 12.4" enable-background="new 0 0 28.4 12.4" xml:space="preserve">
<g>
	<linearGradient id="SVGID_1_" gradientUnits="userSpaceOnUse" x1="2.530656e-02" y1="6.2046" x2="27.8416" y2="6.2046">
		<stop  offset="1.185826e-02" style="stop-color:#FD7861"/>
		<stop  offset="5.782861e-02" style="stop-color:#F76960"/>
		<stop  offset="0.1462" style="stop-color:#E7425D"/>
		<stop  offset="0.2359" style="stop-color:#D4145A"/>
		<stop  offset="0.2659" style="stop-color:#C11863"/>
		<stop  offset="0.3281" style="stop-color:#A02074"/>
		<stop  offset="0.3922" style="stop-color:#872681"/>
		<stop  offset="0.4582" style="stop-color:#742A8A"/>
		<stop  offset="0.5272" style="stop-color:#6A2C8F"/>
		<stop  offset="0.6042" style="stop-color:#662D91"/>
		<stop  offset="0.6547" style="stop-color:#693E99"/>
		<stop  offset="0.7556" style="stop-color:#716CAC"/>
		<stop  offset="0.8959" style="stop-color:#7FB5CC"/>
		<stop  offset="1" style="stop-color:#89EFE5"/>
	</linearGradient>
	<path fill="url(#SVGID_1_)" d="M16.3,12.4c-1,0-2.5-0.3-3.9-2.2c-1.4-2-2-3.2-2.5-4c-0.2-0.4-0.3-0.7-0.5-1c-0.5-0.8-0.8-1-0.9-1.1
		c0,0.1-0.4,0.3-1,1.3c-1.7,2.8-3.4,4.4-5.1,4.7c-1.1,0.2-2.2-0.4-2.4-1.5c-0.3-1.1,0.4-2.2,1.5-2.4c0,0,0.9-0.2,2.5-2.9
		C5.3,1.2,6.8,0.1,8.5,0c2.3,0,3.8,2,4.3,2.8c0.3,0.5,0.6,0.9,0.8,1.4C14,5.1,14.5,6,15.8,7.8c0.3,0.4,0.6,0.5,0.5,0.5
		c0.3,0,1-0.6,1.2-0.9c0.9-1.8,3.7-3.1,5.4-2.7c0.3,0.1,0.5,0.1,0.4,0.1c0,0,0.3-0.4,0.6-1.4c0.3-1.1,1.5-1.7,2.5-1.3
		c1.1,0.3,1.7,1.5,1.3,2.5c-1,3.4-3,4.8-5.7,4.1c-0.3,0.1-0.8,0.4-1,0.6c-0.6,1.1-2.3,2.9-4.5,3.1C16.5,12.4,16.4,12.4,16.3,12.4z"
		/>
</g>
</svg>
