<?xml version="1.0" encoding="utf-8"?>
<!-- Generator: Adobe Illustrator 19.1.0, SVG Export Plug-In . SVG Version: 6.00 Build 0)  -->
<!DOCTYPE svg PUBLIC "-//W3C//DTD SVG 1.1//EN" "http://www.w3.org/Graphics/SVG/1.1/DTD/svg11.dtd">
<svg version="1.1" id="Layer_1" xmlns="http://www.w3.org/2000/svg" xmlns:xlink="http://www.w3.org/1999/xlink" x="0px" y="0px"
	 viewBox="0 0 36.3 35.7" enable-background="new 0 0 36.3 35.7" xml:space="preserve">
<g>
	<g>
		<path d="M20.4,0.2c7.2,1.2,12.2,5.2,14.4,12.1c2.1,6.5,0.6,12.4-4,17.4c-2.7,2.9-6.1,4.7-10,5.3c-5.1,0.8-9.7-0.4-13.8-3.6
			c-3.3-2.6-5.4-6-6.3-10.1c-1.2-6,0.3-11.4,4.5-15.9c3-3.1,6.7-4.9,11-5.3c0,0,0.1,0,0.2,0C16.5,0.1,18.7-0.1,20.4,0.2z M31.3,17.6
			c0-7.2-5.9-13.2-13.1-13.2c-7.4,0-13.3,5.8-13.4,13.1C4.8,24.9,10.7,30.9,18,30.9C25.4,31,31.3,25,31.3,17.6z"/>
		<path fill="#FFFFFF" d="M31.3,17.6C31.3,25,25.4,31,18,30.9c-7.3,0-13.2-6-13.1-13.4c0.1-7.2,6-13.1,13.4-13.1
			C25.4,4.5,31.3,10.4,31.3,17.6z M18.1,23.3c2.3,0,4.1-1.9,4-4.1c0-1.1-0.8-1.5-1.8-1.1c-0.2,0.1-0.4,0.2-0.6,0.3
			c-1.1,0.6-2.2,0.6-3.3,0c-0.2-0.1-0.3-0.2-0.5-0.3c-0.9-0.5-1.7,0-1.8,1C14,21.4,15.8,23.3,18.1,23.3z M13.1,15
			c0-0.9-0.7-1.7-1.6-1.7c-0.9,0-1.6,0.7-1.7,1.6c0,0.9,0.7,1.7,1.6,1.7C12.3,16.6,13.1,15.9,13.1,15z M23.1,14.9
			c0,0.9,0.8,1.7,1.7,1.6c0.9,0,1.6-0.7,1.6-1.6c0-0.9-0.7-1.7-1.6-1.7C23.8,13.3,23.1,14,23.1,14.9z"/>
		<path d="M18.1,23.3c-2.3,0-4.1-1.9-4-4.2c0-1,0.8-1.5,1.8-1c0.2,0.1,0.4,0.2,0.5,0.3c1.1,0.6,2.2,0.6,3.3,0
			c0.2-0.1,0.4-0.2,0.6-0.3c0.9-0.5,1.7,0,1.8,1.1C22.2,21.4,20.4,23.3,18.1,23.3z"/>
		<path d="M13.1,15c0,0.9-0.8,1.6-1.7,1.6c-0.9,0-1.6-0.8-1.6-1.7c0-0.9,0.8-1.6,1.7-1.6C12.4,13.3,13.1,14,13.1,15z"/>
		<path d="M23.1,14.9c0-0.9,0.7-1.6,1.7-1.6c0.9,0,1.6,0.7,1.6,1.7c0,0.9-0.7,1.6-1.6,1.6C23.8,16.6,23.1,15.8,23.1,14.9z"/>
	</g>
</g>
</svg>
