<?xml version="1.0" encoding="utf-8"?>
<!-- Generator: Adobe Illustrator 19.1.0, SVG Export Plug-In . SVG Version: 6.00 Build 0)  -->
<!DOCTYPE svg PUBLIC "-//W3C//DTD SVG 1.1//EN" "http://www.w3.org/Graphics/SVG/1.1/DTD/svg11.dtd">
<svg version="1.1" id="Layer_1" xmlns="http://www.w3.org/2000/svg" xmlns:xlink="http://www.w3.org/1999/xlink" x="0px" y="0px"
	 viewBox="-461 229.3 70.9 69.7" style="enable-background:new -461 229.3 70.9 69.7;" xml:space="preserve">
<style type="text/css">
	.st0{fill:#2F302C;}
</style>
<g>
	<g>
		<g>
			<path class="st0" d="M-459.1,265.1c0.2-10,3.5-18.2,10.1-25c4.6-4.8,10.2-8,16.8-9.3c7.3-1.4,14.2-0.4,20.9,2.7
				c6.9,3.3,12.1,8.3,15.6,15.1c2.1,4,3.3,8.3,3.7,12.8c0.5,7.5-1.5,14.3-5.5,20.5c-3.1,4.9-7.2,8.7-12.3,11.5
				c-5.5,3-11.3,4.2-17.5,3.7c-8.2-0.7-15.3-3.8-21.4-9.4c-5.4-5.1-8.8-11.3-10-18.6C-459,267.7-459,266.2-459.1,265.1z
				 M-426.1,292.7c1.1-0.1,2.2-0.1,3.3-0.2c1-0.1,1.9-0.3,2.9-0.5c9.2-2.1,16-7.3,20.2-15.8c2.6-5.3,3.6-10.8,2.5-16.7
				c-1.1-6.5-4-12.1-8.8-16.7c-6.5-6.2-14.3-8.8-23.2-7.5c-7.3,1.1-13.4,4.4-18.3,9.9c-4.3,4.9-6.6,10.6-6.9,17.1
				c-0.2,5.4,1.1,10.5,3.7,15.2c3.2,5.8,7.8,10.1,13.9,12.8C-433.3,291.9-429.8,292.6-426.1,292.7z"/>
			<path class="st0" d="M-424.7,297.9c-0.9,0-1.7,0-2.6-0.1c-8.3-0.7-15.6-3.9-21.7-9.6c-5.6-5.2-9-11.6-10.2-18.9
				c-0.2-1.1-0.3-2.2-0.3-3.2c0-0.4-0.1-0.7-0.1-1l0-0.1c0.2-10.1,3.5-18.4,10.2-25.3c4.8-5,10.5-8.1,17.1-9.4
				c7.2-1.4,14.4-0.5,21.2,2.8c6.9,3.3,12.3,8.4,15.9,15.3c2.1,4.1,3.4,8.5,3.7,13c0.5,7.2-1.4,14.2-5.6,20.9
				c-3.2,5-7.4,8.9-12.5,11.7C-414.4,296.6-419.5,297.9-424.7,297.9z M-458.6,265c0,0.3,0.1,0.7,0.1,1c0.1,1,0.2,2,0.3,3.1
				c1.1,7.1,4.5,13.3,9.9,18.3c5.9,5.5,13,8.6,21.1,9.3c6,0.5,11.8-0.8,17.2-3.7c5-2.7,9-6.5,12.1-11.3c4.1-6.4,5.9-13.3,5.4-20.2
				c-0.3-4.4-1.5-8.6-3.6-12.6c-3.5-6.7-8.7-11.7-15.4-14.9c-6.6-3.1-13.6-4.1-20.6-2.7c-6.3,1.2-11.9,4.3-16.6,9.1
				C-455.2,247.2-458.4,255.2-458.6,265z M-426,293.2L-426,293.2c-3.9-0.1-7.6-0.8-10.9-2.3c-6-2.7-10.8-7.1-14.1-13.1
				c-2.7-4.9-3.9-10.1-3.7-15.5c0.2-6.5,2.6-12.4,7-17.4c5-5.6,11.2-9,18.6-10.1c9-1.3,16.9,1.3,23.6,7.6c4.8,4.5,7.8,10.2,9,16.9
				c1,5.7,0.1,11.4-2.6,17c-4.2,8.5-11.1,13.9-20.5,16.1c-0.9,0.2-1.8,0.4-3,0.5c-0.8,0.1-1.5,0.1-2.3,0.2L-426,293.2z
				 M-424.8,235.5c-1.4,0-2.8,0.1-4.3,0.3c-7.1,1-13.2,4.3-18,9.8c-4.3,4.8-6.5,10.4-6.7,16.7c-0.2,5.2,1,10.3,3.6,15
				c3.2,5.8,7.8,10,13.6,12.6c3.2,1.4,6.7,2.2,10.5,2.2l1-0.1c0.8,0,1.5-0.1,2.3-0.2c1.1-0.1,2-0.3,2.8-0.5
				c9.1-2.1,15.8-7.3,19.9-15.5c2.6-5.3,3.5-10.8,2.5-16.3c-1.1-6.5-4.1-12-8.7-16.4C-411.6,238.1-417.8,235.5-424.8,235.5z"/>
		</g>
		<g>
			<path class="st0" d="M-425.8,274.3c5.4,0.1,9.7,2,13.4,5.2c0.7,0.6,0.9,1.5,0.5,2.3c-0.4,1-1.5,1.6-2.5,1.6
				c-0.7,0-1.2-0.4-1.7-0.8c-1.9-1.6-3.9-2.7-6.3-3.2c-4.8-1-8.9,0.3-12.6,3.4c-0.7,0.6-1.4,1-2.3,0.8c-1-0.2-1.7-0.8-2-1.8
				c-0.3-1,0.1-1.7,0.8-2.3c3-2.6,6.3-4.4,10.3-5C-427.2,274.4-426.3,274.3-425.8,274.3z"/>
			<path class="st0" d="M-436.8,284.2c-0.2,0-0.3,0-0.5-0.1c-1.2-0.3-2.1-1-2.4-2.2c-0.3-1,0-2,1-2.8c3.3-2.8,6.7-4.5,10.5-5.1
				c0.7-0.1,1.4-0.2,1.9-0.2l0.6,0c5.2,0.1,9.7,1.8,13.8,5.3c0.9,0.8,1.1,1.9,0.7,2.9c-0.5,1.2-1.7,2-3,1.9c-0.9,0-1.5-0.5-2-0.9
				c-1.9-1.6-3.9-2.6-6.1-3.1c-4.4-1-8.4,0.1-12.2,3.3C-435.2,283.7-435.9,284.2-436.8,284.2z M-425.7,274.8l-0.5,0
				c-0.5,0-1.2,0.1-1.9,0.2c-3.6,0.6-6.9,2.1-10,4.8c-0.7,0.6-0.9,1.1-0.7,1.8c0.3,0.8,0.8,1.3,1.7,1.5c0.7,0.1,1.2-0.2,1.9-0.7
				c3.9-3.3,8.3-4.5,13-3.5c2.3,0.5,4.5,1.6,6.5,3.3c0.5,0.4,0.9,0.7,1.4,0.7c0,0,0,0,0.1,0c0.8,0,1.6-0.5,2-1.3
				c0.3-0.7,0.1-1.3-0.4-1.8C-416.5,276.5-420.8,274.9-425.7,274.8z"/>
		</g>
		<g>
			<path class="st0" d="M-414.9,259.1c1.6,0,2.7,1.1,2.8,2.8c0,1.7-1.1,2.9-2.8,2.9c-1.6,0-2.8-1.2-2.8-2.9
				C-417.7,260.2-416.5,259.1-414.9,259.1z"/>
			<path class="st0" d="M-414.9,265.3c-0.9,0-1.7-0.3-2.3-0.9c-0.6-0.6-1-1.5-1-2.4c0-1.9,1.4-3.3,3.3-3.3l0,0
				c1.9,0,3.2,1.4,3.3,3.3c0,1-0.3,1.8-1,2.5C-413.2,264.9-414,265.3-414.9,265.3z M-414.9,259.6c-1.3,0-2.2,0.9-2.3,2.3
				c0,0.7,0.2,1.3,0.7,1.7c0.8,0.8,2.4,0.8,3.2,0c0.4-0.4,0.7-1.1,0.7-1.7C-412.7,260.5-413.6,259.6-414.9,259.6z"/>
		</g>
		<g>
			<path class="st0" d="M-436,259.1c1.6,0,2.7,1.2,2.7,2.8c0,1.7-1.2,2.9-2.8,2.9c-1.6,0-2.7-1.2-2.7-2.9
				C-438.8,260.2-437.7,259.1-436,259.1z"/>
			<path class="st0" d="M-436,265.3C-436.1,265.3-436.1,265.3-436,265.3c-1.9,0-3.3-1.4-3.3-3.4c0-1,0.3-1.8,0.9-2.4
				c0.6-0.6,1.4-0.9,2.3-0.9c0,0,0,0,0,0h0c1.9,0,3.2,1.4,3.2,3.3c0,1-0.3,1.8-1,2.4C-434.4,264.9-435.2,265.3-436,265.3z
				 M-436,259.6c-0.7,0-1.2,0.2-1.6,0.6c-0.4,0.4-0.6,1-0.6,1.7c0,1.4,0.9,2.3,2.2,2.3c0.6,0,1.2-0.2,1.6-0.6c0.4-0.4,0.7-1,0.7-1.7
				C-433.8,260.5-434.7,259.6-436,259.6L-436,259.6z"/>
		</g>
	</g>
</g>
</svg>
