<?xml version="1.0" encoding="utf-8"?>
<!-- Generator: Adobe Illustrator 19.1.0, SVG Export Plug-In . SVG Version: 6.00 Build 0)  -->
<!DOCTYPE svg PUBLIC "-//W3C//DTD SVG 1.1//EN" "http://www.w3.org/Graphics/SVG/1.1/DTD/svg11.dtd">
<svg version="1.1" id="Layer_1" xmlns="http://www.w3.org/2000/svg" xmlns:xlink="http://www.w3.org/1999/xlink" x="0px" y="0px"
	 viewBox="-461 229.3 70.9 69.7" style="enable-background:new -461 229.3 70.9 69.7;" xml:space="preserve">
<style type="text/css">
	.st0{fill:#2F302C;}
</style>
<g>
	<g>
		<g>
			<path class="st0" d="M-424.1,230.9c8.1,0.2,16.2,3.4,22.9,10.1c5,5,8.1,11.1,9.3,18.1c1.2,6.7,0.1,13.2-2.7,19.3
				c-3.3,7-8.3,12.5-15.2,16.1c-5.3,2.8-11,3.9-17,3.5c-7.6-0.6-14.4-3.4-20.2-8.4c-5.8-4.9-9.6-11.1-11-18.5
				c-1.4-7.2-0.3-14.2,2.8-20.8c3.2-6.7,8-11.9,14.5-15.5C-435.9,232.2-430.8,230.9-424.1,230.9z M-425.1,293.4
				c1.3-0.1,2.9-0.2,4.4-0.5c6.6-1.1,12.2-4,16.8-8.9c2.6-2.8,4.6-6,5.9-9.6c1.6-4.4,2.3-8.9,1.6-13.5c-1.2-7.6-4.7-13.9-10.7-18.8
				c-6.3-5.2-13.5-7.2-21.6-5.9c-7.3,1.1-13.4,4.5-18.3,10c-5.3,6.1-7.5,13.2-6.6,21.2c0.5,4.5,2,8.7,4.5,12.5
				C-443.5,288.4-435.6,293-425.1,293.4z"/>
			<path class="st0" d="M-424.1,298.6c-0.9,0-1.7,0-2.6-0.1c-7.7-0.6-14.6-3.5-20.5-8.5c-6-5.1-9.7-11.4-11.2-18.8
				c-1.4-7.1-0.4-14.2,2.9-21.1c3.3-6.9,8.2-12.2,14.7-15.7c4.9-2.7,10.1-3.9,16.7-3.9c0,0,0.1,0,0.1,0h0
				c8.6,0.2,16.8,3.8,23.3,10.3c5,5,8.2,11.1,9.5,18.3c1.2,6.5,0.3,13.1-2.8,19.6c-3.3,7.2-8.5,12.7-15.4,16.4
				C-414.1,297.4-419,298.6-424.1,298.6z M-424.1,231.4c-6.4,0-11.4,1.2-16.2,3.8c-6.3,3.5-11.1,8.6-14.3,15.3
				c-3.2,6.7-4.1,13.6-2.8,20.5c1.4,7.2,5,13.3,10.8,18.2c5.7,4.9,12.4,7.6,19.9,8.2c5.9,0.4,11.5-0.7,16.7-3.4
				c6.7-3.5,11.7-8.9,15-15.9c3-6.4,3.9-12.6,2.7-19c-1.3-7-4.4-13-9.2-17.8C-407.7,235.1-415.8,231.6-424.1,231.4
				C-424.1,231.4-424.1,231.4-424.1,231.4z M-425.1,293.9L-425.1,293.9c-10.6-0.4-18.6-4.8-24.4-13.7c-2.5-3.8-4-8.1-4.5-12.7
				c-0.9-8.2,1.3-15.4,6.7-21.6c4.9-5.6,11.1-9.1,18.6-10.2c8.2-1.2,15.6,0.8,22,6c5.9,4.9,9.6,11.3,10.8,19.1
				c0.7,4.4,0.2,8.9-1.6,13.8c-1.3,3.7-3.4,7-6,9.8c-4.6,4.9-10.4,8-17.1,9.1c-1.1,0.2-2.2,0.3-3.2,0.4
				C-424.3,293.8-424.7,293.8-425.1,293.9L-425.1,293.9z M-424.2,236.2c-1.4,0-2.9,0.1-4.4,0.3c-7.2,1.1-13.2,4.4-17.9,9.9
				c-5.2,6-7.3,13-6.4,20.9c0.5,4.5,2,8.6,4.4,12.3c5.6,8.6,13.3,12.9,23.5,13.3c0.4,0,0.8-0.1,1.2-0.1c1-0.1,2.1-0.2,3.1-0.3
				c6.5-1,12-4,16.5-8.8c2.6-2.7,4.5-5.9,5.8-9.5c1.7-4.7,2.2-9,1.5-13.3c-1.2-7.6-4.7-13.8-10.5-18.5
				C-412.4,238.3-418,236.2-424.2,236.2z"/>
		</g>
		<g>
			<path class="st0" d="M-424.2,284.2c-5.7-0.1-10-2-13.8-5.4c-0.9-0.8-1-2-0.2-3c0.9-1.1,2.3-1.3,3.3-0.5c0.7,0.5,1.3,1,2,1.5
				c2.7,1.9,5.7,2.8,9,2.6c3.1-0.2,5.8-1.4,8.2-3.3c0.2-0.2,0.4-0.3,0.6-0.5c1.3-1,2.9-0.6,3.8,0.7c0.6,0.9,0.5,1.9-0.4,2.6
				c-2.8,2.5-5.9,4.2-9.6,4.9C-422.4,284.1-423.6,284.2-424.2,284.2z"/>
			<path class="st0" d="M-424.2,284.7L-424.2,284.7c-5.6-0.1-10-1.8-14.2-5.5c-1.1-1-1.2-2.5-0.2-3.7c1.1-1.3,2.7-1.5,4-0.6
				c0.3,0.2,0.6,0.5,1,0.7c0.3,0.3,0.6,0.5,1,0.8c2.7,1.9,5.6,2.7,8.7,2.5c2.8-0.2,5.5-1.3,8-3.2l0.2-0.2c0.1-0.1,0.3-0.2,0.4-0.3
				c0.7-0.5,1.6-0.8,2.4-0.6c0.9,0.2,1.6,0.7,2.1,1.5c0.7,1.1,0.5,2.4-0.5,3.3c-2.9,2.6-6.2,4.3-9.8,5c-0.9,0.2-1.7,0.3-2.4,0.3
				C-423.8,284.7-424,284.7-424.2,284.7L-424.2,284.7z M-436.2,275.4c-0.6,0-1.2,0.3-1.6,0.8c-0.7,0.8-0.6,1.7,0.1,2.3
				c3.9,3.5,8.2,5.2,13.4,5.3c0.2,0,0.4,0,0.6-0.1c0.6-0.1,1.5-0.1,2.3-0.3c3.4-0.6,6.5-2.2,9.3-4.7c0.6-0.5,0.7-1.3,0.3-2
				c-0.3-0.5-0.8-0.9-1.4-1c-0.6-0.1-1.2,0-1.6,0.4c-0.1,0.1-0.2,0.2-0.3,0.3l-0.2,0.2c-2.6,2.1-5.5,3.3-8.5,3.4
				c-3.3,0.2-6.4-0.7-9.3-2.7c-0.4-0.3-0.7-0.5-1-0.8c-0.3-0.2-0.6-0.5-0.9-0.7C-435.5,275.5-435.9,275.4-436.2,275.4z"/>
		</g>
		<g>
			<path class="st0" d="M-414.3,259.7c1.6,0,2.8,1.1,2.8,2.8c0,1.7-1.1,2.8-2.7,2.8c-1.6,0-2.8-1.2-2.8-2.9
				C-417.1,260.9-415.9,259.8-414.3,259.7z"/>
			<path class="st0" d="M-414.3,265.9c-0.9,0-1.7-0.3-2.3-0.9c-0.6-0.6-1-1.5-1-2.4c0-1.9,1.4-3.3,3.3-3.3c0,0,0,0,0,0
				c0.9,0,1.7,0.3,2.3,0.9c0.6,0.6,0.9,1.5,0.9,2.4C-411.1,264.5-412.4,265.9-414.3,265.9z M-414.3,259.7v0.5
				c-1.3,0-2.2,0.9-2.2,2.3c0,0.7,0.2,1.3,0.7,1.7c0.4,0.4,1,0.6,1.6,0.6c1.3,0,2.2-1,2.2-2.3c0-0.7-0.2-1.3-0.6-1.7
				c-0.4-0.4-1-0.6-1.6-0.6c0,0,0,0,0,0V259.7z"/>
		</g>
		<g>
			<path class="st0" d="M-432.7,262.6c0,1.6-1.2,2.8-2.8,2.8c-1.6,0-2.8-1.2-2.7-2.9c0-1.7,1.1-2.8,2.8-2.8
				C-433.8,259.8-432.7,260.9-432.7,262.6z"/>
			<path class="st0" d="M-435.5,265.9C-435.5,265.9-435.5,265.9-435.5,265.9c-0.9,0-1.7-0.3-2.3-0.9c-0.6-0.6-1-1.5-0.9-2.5
				c0-0.9,0.3-1.8,0.9-2.4c0.6-0.6,1.4-0.9,2.4-0.9c0,0,0,0,0,0c1.9,0,3.2,1.4,3.2,3.4l0,0C-432.2,264.5-433.6,265.9-435.5,265.9z
				 M-435.4,260.3c-0.7,0-1.2,0.2-1.6,0.6c-0.4,0.4-0.6,1-0.6,1.7c0,0.7,0.2,1.3,0.7,1.7c0.4,0.4,1,0.6,1.6,0.6c0,0,0,0,0,0
				c1.3,0,2.2-1,2.3-2.3C-433.2,261.2-434.1,260.3-435.4,260.3C-435.4,260.3-435.4,260.3-435.4,260.3z"/>
		</g>
	</g>
</g>
</svg>
