<?xml version="1.0" encoding="utf-8"?>
<!-- Generator: Adobe Illustrator 19.1.0, SVG Export Plug-In . SVG Version: 6.00 Build 0)  -->
<!DOCTYPE svg PUBLIC "-//W3C//DTD SVG 1.1//EN" "http://www.w3.org/Graphics/SVG/1.1/DTD/svg11.dtd">
<svg version="1.1" id="Layer_1" xmlns="http://www.w3.org/2000/svg" xmlns:xlink="http://www.w3.org/1999/xlink" x="0px" y="0px"
	 viewBox="-461 229.3 70.9 69.7" style="enable-background:new -461 229.3 70.9 69.7;" xml:space="preserve">
<style type="text/css">
	.st0{fill:#2F302C;}
</style>
<g>
	<g>
		<g>
			<path class="st0" d="M-424.5,297.3c-9.2-0.1-17.2-3.3-23.9-9.6c-4.3-4.1-7.4-9-9-14.8c-1.7-6.1-1.5-12.2,0.4-18.3
				c3-9.3,8.7-16.3,17.5-20.8c4.9-2.5,10.1-3.5,15.6-3.1c8.8,0.6,16.3,3.9,22.4,10.2c4.7,4.8,7.7,10.6,9,17.2
				c1.7,9-0.5,17.1-5.4,24.6c-3.1,4.7-7.2,8.4-12.2,11c-4.1,2.2-8.4,3.3-13,3.6C-423.6,297.3-424.1,297.3-424.5,297.3z
				 M-424.8,292.6c1-0.1,2.8-0.2,4.6-0.5c9.8-2,17-7.6,21.1-16.7c2.3-5,3.1-10.2,2.1-15.6c-1-5.7-3.3-10.7-7.2-15
				c-7.1-7.8-16-10.8-26.3-8.7c-6,1.2-11.2,4.1-15.5,8.6c-6.5,6.9-8.9,15-7.2,24.3c1.2,6.2,4.1,11.5,8.6,15.9
				C-439.3,289.9-433,292.5-424.8,292.6z"/>
			<path class="st0" d="M-423.6,297.8c-0.2,0-0.3,0-0.5,0l-0.5,0c-9.3-0.2-17.5-3.4-24.2-9.8c-4.5-4.2-7.5-9.2-9.1-15
				c-1.7-6.1-1.6-12.4,0.4-18.6c3-9.6,9-16.7,17.7-21.1c4.9-2.5,10.2-3.6,15.9-3.2c8.9,0.6,16.6,4,22.8,10.3
				c4.7,4.8,7.8,10.7,9.1,17.5c1.6,8.6-0.2,17-5.5,25c-3.1,4.7-7.3,8.5-12.4,11.2c-4.1,2.2-8.6,3.4-13.2,3.6
				C-423.2,297.8-423.4,297.8-423.6,297.8z M-424.5,296.8l0.5,0c0.3,0,0.7,0,1,0c4.5-0.2,8.8-1.4,12.8-3.5c4.9-2.6,9-6.3,12-10.9
				c5.2-7.9,6.9-15.8,5.3-24.2c-1.3-6.6-4.2-12.3-8.8-17c-6-6.1-13.4-9.5-22.1-10c-5.5-0.3-10.7,0.7-15.4,3.1
				c-8.5,4.3-14.3,11.2-17.2,20.5c-1.9,6-2.1,12.1-0.4,18c1.6,5.6,4.5,10.5,8.8,14.5C-441.5,293.5-433.6,296.7-424.5,296.8
				L-424.5,296.8z M-424.8,293.1L-424.8,293.1c-8.2-0.1-14.6-2.6-20.1-7.9c-4.7-4.5-7.6-9.9-8.8-16.2c-1.7-9.4,0.7-17.7,7.3-24.7
				c4.3-4.6,9.6-7.5,15.7-8.7c10.5-2.1,19.5,0.9,26.8,8.8c3.9,4.2,6.3,9.3,7.4,15.2c0.9,5.4,0.2,10.7-2.1,15.9
				c-4.2,9.2-11.4,14.9-21.5,17c-1.3,0.3-2.7,0.4-3.7,0.5C-424.2,293-424.5,293.1-424.8,293.1L-424.8,293.1z M-424.4,235.9
				c-2,0-4,0.2-6.1,0.6c-5.9,1.2-11,4-15.2,8.4c-6.4,6.7-8.7,14.8-7,23.8c1.1,6.1,4,11.3,8.5,15.6c5.3,5.1,11.5,7.5,19.4,7.6
				c0.3,0,0.6-0.1,1-0.1c1-0.1,2.3-0.2,3.5-0.4c9.7-2,16.7-7.5,20.8-16.4c2.3-5,3-10.1,2.1-15.3c-1-5.7-3.4-10.7-7.1-14.7
				C-410.2,239-416.9,235.9-424.4,235.9z"/>
		</g>
		<g>
			<path class="st0" d="M-425.1,269.2c4.5,0,9,0,13.5,0c0.8,0,1.5,0.2,2.1,0.8c0.5,0.5,0.7,1.1,0.6,1.8c-0.5,5.6-2.8,10.1-7.3,13.4
				c-3.4,2.5-7.3,3.1-11.4,2.3c-6.5-1.3-10.8-5.1-12.8-11.4c-0.4-1.4-0.6-2.9-0.8-4.4c-0.2-1.2,0.8-2.3,2-2.5c0.3,0,0.5,0,0.8,0
				C-434,269.2-429.6,269.2-425.1,269.2z M-436.1,274c1,5,5.5,9,11.9,8.6c6.1-0.4,9.6-4.8,10.2-8.6C-421.4,274-428.7,274-436.1,274z
				"/>
			<path class="st0" d="M-424.3,288.3c-1.1,0-2.2-0.1-3.4-0.4c-6.7-1.4-11.2-5.3-13.2-11.7c-0.4-1.3-0.6-2.6-0.7-3.9l-0.1-0.5
				c-0.2-1.4,0.9-2.8,2.4-3c0.3,0,0.6-0.1,0.9-0.1l13.4,0l3.4,0c3.4,0,6.7,0,10.1,0c0.7,0,1.7,0.1,2.5,0.9c0.6,0.6,0.8,1.4,0.8,2.2
				c-0.5,5.9-3,10.5-7.5,13.8C-418.4,287.4-421.3,288.3-424.3,288.3z M-425.1,269.7l-13.4,0c-0.2,0-0.5,0-0.7,0
				c-1,0.2-1.7,1-1.5,1.9l0.1,0.5c0.2,1.3,0.3,2.6,0.7,3.8c1.9,6,6.1,9.7,12.4,11c4.1,0.8,7.8,0.1,11-2.2c4.3-3.1,6.7-7.5,7.1-13.1
				c0-0.5-0.1-1-0.5-1.4c-0.4-0.4-0.9-0.6-1.7-0.6c-3.4,0-6.7,0-10.1,0H-425.1z M-425.1,283.1c-6.4,0-10.6-4.4-11.5-9l-0.1-0.6h23.3
				l-0.1,0.6c-0.6,4.1-4.3,8.6-10.7,9C-424.5,283.1-424.8,283.1-425.1,283.1z M-435.5,274.5c1.1,4,5,8,11.2,7.6
				c5.5-0.4,8.8-4.1,9.6-7.6H-435.5z"/>
		</g>
		<g>
			<path class="st0" d="M-414.7,256.8c2,0,3.7,0.8,5.1,2.1c1.3,1.2,0.7,3.2-1.1,3.8c-0.9,0.3-1.7,0-2.5-0.6c-1-0.7-2-0.7-3,0
				c-0.1,0.1-0.3,0.2-0.4,0.3c-1.4,1-3.6,0.1-3.9-1.6c-0.1-0.7,0.1-1.3,0.6-1.8C-418.3,257.6-416.6,256.8-414.7,256.8z"/>
			<path class="st0" d="M-417.9,263.3c-0.4,0-0.8-0.1-1.2-0.2c-1-0.4-1.6-1.3-1.8-2.2c-0.1-0.9,0.1-1.6,0.8-2.2
				c1.6-1.5,3.4-2.2,5.5-2.3h0c2,0,3.9,0.8,5.4,2.2c0.7,0.6,1,1.5,0.8,2.4c-0.2,1-1,1.8-2.1,2.2c-1.3,0.4-2.3-0.2-2.9-0.7
				c-0.8-0.6-1.5-0.6-2.3,0l-0.4,0.3C-416.8,263.1-417.3,263.3-417.9,263.3z M-414.7,257.3c-1.8,0-3.4,0.7-4.8,2
				c-0.4,0.4-0.6,0.8-0.5,1.4c0.1,0.6,0.5,1.2,1.2,1.5c0.7,0.3,1.4,0.2,1.9-0.2l0.4-0.3c1.2-0.9,2.4-0.9,3.6,0
				c0.8,0.6,1.4,0.7,2,0.5c0.7-0.2,1.3-0.8,1.4-1.5c0.1-0.6,0-1.1-0.5-1.5C-411.3,258-412.9,257.3-414.7,257.3z"/>
		</g>
		<g>
			<path class="st0" d="M-435.5,256.8c1.9,0,3.6,0.7,5.1,2.1c1.3,1.2,0.7,3.2-1.1,3.8c-0.9,0.3-1.7,0-2.4-0.6c-1-0.7-2-0.7-3,0
				c-0.2,0.1-0.3,0.3-0.5,0.4c-0.8,0.5-1.6,0.6-2.4,0.1c-0.8-0.4-1.4-1.1-1.4-2.1c0-0.6,0.2-1.2,0.7-1.6
				C-439.2,257.6-437.5,256.8-435.5,256.8z"/>
			<path class="st0" d="M-438.8,263.3c-0.4,0-0.9-0.1-1.3-0.4c-1.1-0.6-1.6-1.4-1.7-2.5c0-0.8,0.2-1.4,0.8-2
				c1.6-1.5,3.4-2.2,5.4-2.2h0c2,0,3.8,0.8,5.4,2.2c0.7,0.6,1,1.5,0.8,2.5c-0.2,1-1,1.8-2.1,2.2c-1.3,0.4-2.3-0.2-2.9-0.7
				c-0.8-0.6-1.5-0.6-2.3,0l-0.2,0.1c-0.1,0.1-0.2,0.2-0.4,0.3C-437.7,263.2-438.3,263.3-438.8,263.3z M-435.5,257.3
				c-1.8,0-3.3,0.7-4.8,2c-0.4,0.3-0.5,0.7-0.5,1.2c0,0.7,0.4,1.3,1.2,1.6c0.7,0.3,1.3,0.3,1.9-0.1c0.1-0.1,0.2-0.1,0.3-0.2l0.2-0.1
				c1.2-0.9,2.4-0.9,3.6,0c0.7,0.6,1.3,0.7,2,0.5c0.7-0.2,1.3-0.8,1.4-1.4c0.1-0.6-0.1-1.1-0.5-1.5
				C-432.2,258-433.8,257.3-435.5,257.3z"/>
		</g>
	</g>
</g>
</svg>
