<?xml version="1.0" encoding="utf-8"?>
<!-- Generator: Adobe Illustrator 19.1.0, SVG Export Plug-In . SVG Version: 6.00 Build 0)  -->
<!DOCTYPE svg PUBLIC "-//W3C//DTD SVG 1.1//EN" "http://www.w3.org/Graphics/SVG/1.1/DTD/svg11.dtd">
<svg version="1.1" id="Layer_1" xmlns="http://www.w3.org/2000/svg" xmlns:xlink="http://www.w3.org/1999/xlink" x="0px" y="0px"
	 viewBox="-461 229.3 70.9 69.7" style="enable-background:new -461 229.3 70.9 69.7;" xml:space="preserve">
<style type="text/css">
	.st0{fill:#2F302C;stroke:#2F302C;stroke-miterlimit:10;}
</style>
<g>
	<g>
		<g>
			<g>
				<path class="st0" d="M-425.2,230.9c8.4,0.2,16.6,3.4,23.2,10.2c5.3,5.4,8.4,11.9,9.4,19.3c1.1,8.1-1.1,15.5-5.5,22.3
					c-4.6,7-10.9,11.7-19.1,13.9c-6.1,1.6-12.1,1.3-18-0.6c-8.5-2.7-15.1-7.9-19.6-15.6c-2.6-4.4-3.9-9.1-4.1-14.1
					c-0.2-5.2,0.7-10.2,2.8-15c3.4-7.6,8.7-13.4,16.2-17.2C-435.6,231.9-431,230.9-425.2,230.9z M-425.4,292.8
					c0.8-0.1,2.3-0.1,3.8-0.4c9.5-1.6,16.6-6.6,21.2-15c2.8-5.2,4-10.8,3.1-16.7c-1.1-7.2-4.3-13.4-9.9-18.2
					c-6.9-6-14.9-8.1-23.8-6.2c-6.5,1.3-12,4.5-16.3,9.5c-5.9,6.8-8,14.6-6.3,23.4c1.2,6.2,4.1,11.6,8.7,15.9
					C-439.7,290.1-433.4,292.7-425.4,292.8z"/>
				<path class="st0" d="M-425.1,298.1c-3.4,0-6.8-0.6-10.3-1.7c-8.7-2.8-15.3-8.1-19.9-15.8c-2.6-4.4-4-9.2-4.2-14.4
					c-0.2-5.3,0.7-10.4,2.9-15.2c3.5-7.8,9-13.7,16.4-17.4c4.5-2.2,9.1-3.2,15-3.3h0c9,0.2,17.1,3.8,23.6,10.3
					c5.3,5.4,8.5,12,9.5,19.6c1,7.8-0.9,15.4-5.6,22.6c-4.7,7.2-11.3,11.9-19.3,14.1C-419.7,297.7-422.4,298.1-425.1,298.1z
					 M-425.2,231.4c-5.7,0-10.2,1-14.6,3.1c-7.2,3.6-12.6,9.3-15.9,16.9c-2.1,4.7-3,9.7-2.8,14.8c0.2,5,1.6,9.7,4.1,13.9
					c4.4,7.5,10.9,12.6,19.3,15.4c6,1.9,12,2.1,17.7,0.6c7.9-2.1,14.2-6.7,18.8-13.7c4.6-7,6.4-14.4,5.5-22c-1-7.4-4.1-13.8-9.2-19
					C-408.6,235-416.5,231.6-425.2,231.4z M-425.4,293.3L-425.4,293.3c-7.9-0.1-14.4-2.7-19.9-7.8c-4.7-4.5-7.6-9.9-8.8-16.2
					c-1.7-8.9,0.5-17,6.4-23.8c4.4-5.1,10-8.3,16.6-9.7c9.1-1.9,17.3,0.3,24.3,6.3c5.5,4.8,8.9,11.1,10,18.5
					c0.9,5.8-0.2,11.6-3.2,17c-4.6,8.5-11.9,13.7-21.5,15.3c-1.1,0.2-2.2,0.3-3,0.3C-424.9,293.3-425.2,293.3-425.4,293.3
					L-425.4,293.3z M-424.9,236.1c-2,0-4,0.2-6,0.6c-6.4,1.3-11.8,4.5-16,9.4c-5.7,6.6-7.8,14.3-6.2,23c1.2,6.1,4,11.4,8.5,15.7
					c5.2,5,11.5,7.5,19.1,7.6c0.2,0,0.5,0,0.8-0.1c0.8-0.1,1.9-0.1,2.9-0.3c9.4-1.6,16.4-6.5,20.8-14.8c2.9-5.3,3.9-10.8,3-16.4
					c-1.1-7.2-4.3-13.2-9.7-17.9C-412.7,238.4-418.5,236.1-424.9,236.1z"/>
			</g>
			<g>
				<path class="st0" d="M-409.4,283.9c0,2.2-1.6,3.3-3.3,2.6c-1.8-0.7-3.6-1.4-5.4-2.1c-2.3-0.9-4.6-1.6-7.1-1.5
					c-2,0-3.9,0.5-5.7,1.1c-2.1,0.7-4.1,1.4-6.1,2.1c-0.8,0.3-1.5,0.5-2.3,0.5c-1.3,0.1-2.5-1.1-2.4-2.5c0.4-4.8,2.2-8.9,5.7-12.2
					c3.7-3.4,8-4.5,12.9-3.6c3.3,0.6,6.2,1.9,8.6,4.2c2.6,2.5,4.2,5.5,4.9,9C-409.6,282.5-409.5,283.4-409.4,283.9z M-414.9,280.6
					c-1.3-4.2-5.5-7.5-11-7.3c-5.8,0.1-9.5,4-10.4,7.4c0.1,0,0.2-0.1,0.4-0.1c1.4-0.4,2.8-0.9,4.3-1.3c2.2-0.7,4.4-1.3,6.8-1.1
					c2.4,0.2,4.7,0.8,7,1.5C-416.9,279.9-415.9,280.3-414.9,280.6z"/>
				<path class="st0" d="M-411.7,287.2c-0.4,0-0.8-0.1-1.2-0.2c-0.6-0.3-1.3-0.5-1.9-0.8c-1.1-0.5-2.3-0.9-3.4-1.3
					c-2.5-0.9-4.7-1.6-7-1.5c-2,0-3.9,0.6-5.6,1.1c-1.2,0.4-2.3,0.8-3.4,1.2c-0.9,0.3-1.8,0.6-2.7,0.9c-0.7,0.2-1.6,0.5-2.5,0.6
					c-0.8,0-1.5-0.2-2.1-0.8c-0.6-0.6-0.9-1.4-0.8-2.2c0.4-5,2.4-9.3,5.9-12.5c3.7-3.4,8.1-4.6,13.3-3.7c3.4,0.6,6.4,2.1,8.8,4.4
					c2.6,2.5,4.3,5.6,5,9.3c0.1,0.6,0.2,1.2,0.2,1.7l0.1,0.6c0,1.2-0.4,2.3-1.3,2.8C-410.7,287-411.2,287.2-411.7,287.2z
					 M-425.1,282.3c2.4,0,4.5,0.6,7.1,1.6c1.2,0.4,2.3,0.9,3.5,1.3c0.6,0.3,1.3,0.5,1.9,0.8c0.7,0.2,1.3,0.2,1.8-0.1
					c0.5-0.4,0.8-1.1,0.8-2l-0.1-0.5c-0.1-0.5-0.1-1.1-0.2-1.6c-0.7-3.5-2.3-6.5-4.7-8.8c-2.3-2.1-5.1-3.5-8.3-4.1
					c-4.8-0.9-9,0.3-12.4,3.5c-3.3,3.1-5.2,7.1-5.6,11.9c0,0.5,0.2,1,0.5,1.4c0.4,0.4,0.8,0.5,1.3,0.5c0.8-0.1,1.5-0.3,2.2-0.5
					c0.9-0.3,1.8-0.6,2.7-0.9c1.2-0.4,2.3-0.8,3.5-1.2c1.7-0.5,3.7-1.1,5.8-1.1C-425.2,282.3-425.1,282.3-425.1,282.3z
					 M-414.2,281.4l-1.9-0.6c-0.6-0.2-1.3-0.4-1.9-0.6c-2.5-0.8-4.7-1.3-6.9-1.5c-2.3-0.2-4.4,0.4-6.6,1.1c-1.1,0.3-2.1,0.7-3.2,1
					l-1.1,0.3c-0.1,0-0.2,0-0.3,0.1l-1,0.3l0.2-0.8c1-3.7,5-7.6,10.8-7.8c0.1,0,0.2,0,0.3,0c5.2,0,9.8,3.1,11.2,7.7L-414.2,281.4z
					 M-425.6,273.8c-0.1,0-0.2,0-0.3,0c-4.8,0.1-8.3,3-9.6,6.1l0.5-0.2c1.1-0.3,2.1-0.7,3.2-1c2.2-0.7,4.5-1.3,7-1.1
					c2.3,0.2,4.6,0.7,7.1,1.5c0.6,0.2,1.3,0.4,1.9,0.6l0,0C-417.3,276.2-421.2,273.8-425.6,273.8z"/>
			</g>
		</g>
	</g>
	<g>
		<path class="st0" d="M-433.7,262.1c-1.4,1.4-3.1,2.1-5,2.1c-1.7,0.1-2.7-1.8-1.9-3.5c0.5-0.9,1.2-1.2,2.2-1.3
			c1.2-0.2,1.9-0.9,2.1-2.1c0-0.2,0-0.3,0.1-0.5c0.3-1.7,2.5-2.6,3.9-1.6c0.6,0.4,0.8,1,0.8,1.7
			C-431.6,258.9-432.3,260.7-433.7,262.1z"/>
		<path class="st0" d="M-438.8,264.7c-0.9,0-1.7-0.4-2.1-1.2c-0.6-0.9-0.6-2-0.1-3c0.6-1.2,1.8-1.5,2.6-1.6c1-0.1,1.5-0.7,1.6-1.7
			l0-0.2c0-0.1,0-0.2,0-0.3c0.2-1,0.8-1.8,1.8-2.2c1-0.4,2.1-0.3,2.9,0.3c0.7,0.5,1.1,1.3,1,2.2c-0.1,2.2-0.8,4-2.3,5.5l0,0
			c-1.5,1.4-3.3,2.2-5.4,2.3C-438.8,264.7-438.8,264.7-438.8,264.7z M-433.8,255.3c-0.3,0-0.5,0-0.8,0.2c-0.7,0.3-1.1,0.8-1.2,1.4
			l-0.1,0.5c-0.2,1.4-1.1,2.3-2.5,2.5c-0.9,0.1-1.5,0.4-1.8,1.1c-0.3,0.7-0.3,1.5,0,2c0.3,0.5,0.8,0.7,1.4,0.7
			c1.9-0.1,3.4-0.7,4.7-2c1.2-1.3,1.9-2.9,2-4.8c0-0.6-0.2-1-0.6-1.3C-433,255.4-433.4,255.3-433.8,255.3z"/>
	</g>
	<g>
		<path class="st0" d="M-417.1,262.1c-1.4-1.4-2.1-3.1-2.1-5c-0.1-1.8,1.8-2.7,3.5-1.9c0.9,0.5,1.2,1.2,1.3,2.1
			c0.2,1.2,0.9,1.9,2.1,2.1c0.2,0,0.4,0,0.6,0.1c0.9,0.2,1.5,0.7,1.8,1.6c0.3,0.9,0.2,1.7-0.5,2.5c-0.4,0.5-1,0.7-1.6,0.6
			C-413.9,264.1-415.7,263.4-417.1,262.1z"/>
		<path class="st0" d="M-411.9,264.7c0,0-0.1,0-0.1,0c-2.2-0.1-4-0.9-5.4-2.3l0,0c-1.4-1.4-2.2-3.2-2.3-5.4c0-1,0.4-1.8,1.2-2.3
			c0.9-0.5,2-0.6,3,0c1.2,0.6,1.5,1.7,1.6,2.5c0.1,1,0.7,1.5,1.7,1.7l0.2,0c0.2,0,0.3,0,0.5,0.1c1.1,0.2,1.8,0.9,2.2,1.9
			c0.4,1.1,0.2,2.1-0.6,2.9C-410.5,264.4-411.1,264.7-411.9,264.7z M-416.7,261.7c1.3,1.2,2.8,1.9,4.8,2c0.5,0,0.9-0.1,1.2-0.5
			c0.5-0.5,0.6-1.2,0.4-2c-0.2-0.7-0.7-1.1-1.4-1.3c-0.1,0-0.3,0-0.4-0.1l-0.2,0c-1.4-0.2-2.3-1.1-2.5-2.5c-0.1-0.9-0.4-1.4-1-1.8
			c-0.7-0.4-1.5-0.4-2,0c-0.5,0.3-0.7,0.8-0.7,1.4C-418.6,258.9-418,260.4-416.7,261.7z"/>
	</g>
</g>
</svg>
