<?xml version="1.0" encoding="utf-8"?>
<!-- Generator: Adobe Illustrator 19.1.0, SVG Export Plug-In . SVG Version: 6.00 Build 0)  -->
<!DOCTYPE svg PUBLIC "-//W3C//DTD SVG 1.1//EN" "http://www.w3.org/Graphics/SVG/1.1/DTD/svg11.dtd">
<svg version="1.1" id="Layer_1" xmlns="http://www.w3.org/2000/svg" xmlns:xlink="http://www.w3.org/1999/xlink" x="0px" y="0px"
	 viewBox="-461 229.3 70.9 69.7" style="enable-background:new -461 229.3 70.9 69.7;" xml:space="preserve">
<style type="text/css">
	.st0{fill:#2F302C;}
</style>
<g>
	<g>
		<g>
			<path class="st0" d="M-425.6,297.6c-8.3-0.2-16.2-3.3-22.9-9.5c-4.6-4.3-7.8-9.5-9.3-15.7c-1.9-7.8-0.9-15.4,2.6-22.6
				c3.4-7,8.5-12.3,15.5-15.7c4.9-2.4,10.1-3.5,15.6-3.1c8.2,0.5,15.3,3.5,21.3,9.1c5.5,5.1,9,11.5,10.2,18.9
				c1.7,9.9-1.2,18.6-7.2,26.3c-4.2,5.4-9.7,9.1-16.4,11.1C-418.9,297.2-421.8,297.6-425.6,297.6z M-425.9,292.8c0.2,0,0.5,0,0.7,0
				c0.2,0,0.5,0,0.7,0c4.5-0.2,8.7-1.4,12.6-3.5c5.2-2.8,9.2-6.9,11.9-12.2c2.6-5.1,3.7-10.4,3-16.1c-1-7.2-4.1-13.3-9.5-18.1
				c-6.5-5.9-14.3-8.2-23-6.8c-6.6,1.1-12.3,4.1-16.9,9c-6.4,6.8-8.7,14.9-7,24.1c1.1,6.1,4,11.4,8.5,15.8
				C-439.6,290.1-433.3,292.7-425.9,292.8z"/>
			<path class="st0" d="M-425.6,298.1L-425.6,298.1c-8.6-0.2-16.6-3.5-23.2-9.7c-4.8-4.5-8-9.8-9.5-15.9c-1.9-7.7-1-15.4,2.6-22.9
				c3.5-7.1,8.7-12.5,15.7-15.9c4.9-2.5,10.3-3.5,15.9-3.2c8.4,0.5,15.6,3.6,21.6,9.2c5.6,5.2,9.1,11.7,10.4,19.2
				c1.6,9.5-0.9,18.5-7.3,26.7c-4.3,5.5-9.9,9.3-16.6,11.2C-418.9,297.7-421.8,298.1-425.6,298.1L-425.6,298.1z M-426.1,231.4
				c-4.7,0-9.2,1.1-13.4,3.2c-6.7,3.4-11.9,8.6-15.2,15.5c-3.5,7.3-4.4,14.8-2.6,22.2c1.5,5.9,4.5,11.1,9.2,15.4
				c6.4,6,14.2,9.2,22.5,9.4c3.7,0,6.5-0.4,9.3-1.2c6.5-1.9,11.9-5.6,16.1-10.9c6.3-8,8.7-16.7,7.1-25.9
				c-1.2-7.3-4.6-13.6-10.1-18.7c-5.8-5.4-12.9-8.4-21-8.9C-424.7,231.4-425.4,231.4-426.1,231.4z M-425.4,293.3c-0.1,0-0.2,0-0.2,0
				h-0.2c-7.5-0.1-14-2.8-19.4-8.1c-4.6-4.5-7.5-9.9-8.6-16.1c-1.7-9.3,0.7-17.6,7.2-24.5c4.6-5,10.4-8,17.1-9.1
				c8.9-1.4,16.7,0.9,23.4,6.9c5.4,4.9,8.7,11.1,9.7,18.5c0.7,5.4-0.3,11-3,16.4c-2.7,5.3-6.7,9.5-12.1,12.4
				c-4,2.2-8.3,3.4-12.9,3.6l-0.7,0C-425.2,293.3-425.3,293.3-425.4,293.3z M-425.8,292.3l0.2,0c0.1,0,0.3,0,0.4,0l0.7,0
				c4.4-0.2,8.6-1.4,12.4-3.5c5.1-2.8,9-6.8,11.6-11.9c2.7-5.2,3.6-10.5,2.9-15.8c-1-7.1-4.1-13.1-9.3-17.8
				c-6.4-5.8-14-8.1-22.6-6.7c-6.5,1.1-12.1,4-16.6,8.8c-6.2,6.7-8.6,14.6-6.9,23.6c1.1,6,3.9,11.2,8.3,15.5
				C-439.3,289.6-433,292.2-425.8,292.3L-425.8,292.3z"/>
		</g>
		<g>
			<path class="st0" d="M-425.3,276.9c3.7,0,7.5,0,11.2,0c2.2,0,2.9,2.2,2.1,3.7c-0.5,0.8-1.2,1.1-2.1,1.1c-1.7,0-3.4,0-5.2,0
				c-5.8,0-11.5,0-17.3,0c-1,0-1.7-0.3-2.2-1.2c-0.5-0.9-0.4-1.8,0.2-2.7c0.4-0.6,1.1-0.9,1.9-0.9
				C-432.9,276.9-429.1,276.9-425.3,276.9z"/>
			<path class="st0" d="M-436.5,282.1c-1.3,0-2.1-0.5-2.6-1.5c-0.5-1.1-0.5-2.2,0.2-3.2c0.5-0.7,1.3-1.1,2.3-1.1c0,0,0,0,0,0l7.5,0
				l3.8,0l3.4,0c2.6,0,5.2,0,7.8,0c0,0,0,0,0.1,0c1.1,0,1.9,0.5,2.4,1.3c0.6,0.9,0.6,2.1,0,3.1c-0.5,0.9-1.4,1.4-2.5,1.4l-9.5,0
				C-427.9,282.1-432.2,282.1-436.5,282.1z M-436.6,277.4c-0.7,0-1.1,0.2-1.4,0.7c-0.5,0.7-0.5,1.4-0.1,2.2c0.3,0.6,0.9,0.9,1.7,0.9
				c4.3,0,8.6,0,12.9,0h9.5c0.8,0,1.3-0.3,1.6-0.9c0.4-0.6,0.3-1.4,0-2.1c-0.2-0.4-0.7-0.9-1.6-0.8c-2.6,0-5.2,0-7.8,0L-436.6,277.4
				C-436.6,277.4-436.6,277.4-436.6,277.4z"/>
		</g>
		<g>
			<path class="st0" d="M-435.8,259.9c1.2,0,2.4,0,3.6,0c1.2,0,2.1,0.8,2.2,2c0.2,1.2-0.4,2.3-1.5,2.6c-0.3,0.1-0.6,0.1-0.9,0.1
				c-2.3,0-4.6,0-6.8,0c-1.7,0-2.7-1.2-2.4-2.9c0.2-1.2,1.1-1.9,2.3-1.9C-438.2,259.9-437,259.9-435.8,259.9z"/>
			<path class="st0" d="M-436.5,265.2c-0.9,0-1.8,0-2.7,0c-1,0-1.8-0.4-2.3-1c-0.5-0.6-0.7-1.5-0.6-2.5c0.2-1.4,1.3-2.3,2.8-2.3
				c0.8,0,1.7,0,2.5,0h2.2c0.8,0,1.7,0,2.5,0c1.5,0,2.5,1,2.7,2.5c0.2,1.5-0.6,2.8-1.9,3.2c-0.3,0.1-0.7,0.1-1.1,0.1
				C-433.8,265.2-435.1,265.2-436.5,265.2z M-438,260.4c-0.5,0-1,0-1.4,0c-1,0-1.6,0.6-1.8,1.5c-0.1,0.7,0,1.2,0.4,1.6
				c0.3,0.4,0.9,0.6,1.6,0.6c2.3,0,4.6,0,6.8,0c0.3,0,0.6,0,0.8-0.1c0.8-0.2,1.3-1.1,1.2-2.1c-0.1-1-0.8-1.6-1.7-1.6
				c-0.8,0-1.7,0-2.5,0l-1.1,0l-1.1,0C-437.2,260.4-437.6,260.4-438,260.4z"/>
		</g>
		<g>
			<path class="st0" d="M-414.9,259.9c1.2,0,2.3,0,3.5,0c1.4,0,2.3,0.9,2.4,2.3c0.1,1.4-0.8,2.4-2.2,2.5c-2.5,0.1-4.9,0.1-7.4,0
				c-1.4,0-2.3-1.1-2.2-2.4c0-1.4,1-2.3,2.4-2.3C-417.2,259.9-416,259.9-414.9,259.9z"/>
			<path class="st0" d="M-414.9,265.2c-1.2,0-2.4,0-3.7,0c-0.8,0-1.5-0.3-2-0.8c-0.5-0.5-0.8-1.3-0.8-2.1c0.1-1.7,1.2-2.8,2.9-2.8
				c0.8,0,1.6,0,2.4,0h2.3c0.8,0,1.6,0,2.3,0c1.7,0,2.8,1.1,2.9,2.8c0,0.9-0.2,1.6-0.7,2.2c-0.5,0.5-1.2,0.8-1.9,0.8
				C-412.4,265.2-413.6,265.2-414.9,265.2z M-417.2,260.4c-0.4,0-0.8,0-1.2,0c-1.1,0-1.8,0.7-1.9,1.9c0,0.5,0.2,1,0.5,1.4
				c0.3,0.3,0.7,0.5,1.3,0.5c2.6,0.1,5,0.1,7.3,0c0.5,0,0.9-0.2,1.2-0.5c0.3-0.3,0.5-0.9,0.5-1.5c0-1.1-0.8-1.8-1.9-1.8
				c-0.8,0-1.6,0-2.3,0l-1.2,0l-1.2,0C-416.4,260.4-416.8,260.4-417.2,260.4z"/>
		</g>
	</g>
</g>
</svg>
