<?xml version="1.0" encoding="utf-8"?>
<!-- Generator: Adobe Illustrator 19.1.0, SVG Export Plug-In . SVG Version: 6.00 Build 0)  -->
<!DOCTYPE svg PUBLIC "-//W3C//DTD SVG 1.1//EN" "http://www.w3.org/Graphics/SVG/1.1/DTD/svg11.dtd">
<svg version="1.1" id="Layer_1" xmlns="http://www.w3.org/2000/svg" xmlns:xlink="http://www.w3.org/1999/xlink" x="0px" y="0px"
	 viewBox="0 0 63.2 63.2" style="enable-background:new 0 0 63.2 63.2;" xml:space="preserve">
<style type="text/css">
	.st0{fill:#2F302C;}
</style>
<g>
	<g>
		<path class="st0" d="M7.1,53.9V20.5c0-6.3,5.1-11.4,11.4-11.4h26.9c6.3,0,11.4,5.1,11.4,11.4v22c0,6.3-5.1,11.4-11.4,11.4
			L7.1,53.9z M18.5,15.2c-3,0-5.4,2.4-5.4,5.4v27.4l32.2,0c3,0,5.4-2.4,5.4-5.4v-22c0-3-2.4-5.4-5.4-5.4H18.5z"/>
	</g>
	<g>
		<path class="st0" d="M20.1,28.6v-5.5c0-0.6,0.5-1,1-1h16.5c0.6,0,1,0.5,1,1v5.5c0,0.6-0.5,1-1,1H21.2
			C20.6,29.6,20.1,29.1,20.1,28.6z"/>
	</g>
	<g>
		<path class="st0" d="M25.7,40.5V35c0-0.6,0.5-1,1-1h16.5c0.6,0,1,0.5,1,1v5.5c0,0.6-0.5,1-1,1H26.8C26.2,41.5,25.7,41.1,25.7,40.5
			z"/>
	</g>
</g>
</svg>
