<?xml version="1.0" encoding="utf-8"?>
<!-- Generator: Adobe Illustrator 19.1.0, SVG Export Plug-In . SVG Version: 6.00 Build 0)  -->
<!DOCTYPE svg PUBLIC "-//W3C//DTD SVG 1.1//EN" "http://www.w3.org/Graphics/SVG/1.1/DTD/svg11.dtd">
<svg version="1.1" id="Layer_1" xmlns="http://www.w3.org/2000/svg" xmlns:xlink="http://www.w3.org/1999/xlink" x="0px" y="0px"
	 viewBox="0 0 63.2 63.2" style="enable-background:new 0 0 63.2 63.2;" xml:space="preserve">
<style type="text/css">
	.st0{fill:#2F302C;}
</style>
<g>
	<g>
		<path class="st0" d="M44.6,59.9H17.8c-6.3,0-11.4-5.1-11.4-11.4v-16c0-6.3,5.1-11.4,11.4-11.4h26.9c6.3,0,11.4,5.1,11.4,11.4v16
			C56,54.8,50.9,59.9,44.6,59.9z M17.8,27.2c-3,0-5.4,2.4-5.4,5.4v16c0,3,2.4,5.4,5.4,5.4h26.9c3,0,5.4-2.4,5.4-5.4v-16
			c0-3-2.4-5.4-5.4-5.4H17.8z"/>
	</g>
	<g>
		<path class="st0" d="M46,17h-6l0-3.7c0,0,0-1.6-1.2-2.9c-1.4-1.5-4.1-2.2-7.6-2.2c-8,0-8.1,4.8-8.1,5V17h-6v-3.9
			c0-0.1,0.2-11,14.1-11c5.4,0,9.5,1.4,12.1,4.2c2.7,3,2.8,6.3,2.8,7.2V17z"/>
	</g>
	<g>
		<g>
			<circle class="st0" cx="30.8" cy="37.7" r="5.7"/>
		</g>
		<g>
			<path class="st0" d="M32.5,49.6h-3.5c-0.4,0-0.8-0.4-0.8-0.8V36.4c0-0.4,0.4-0.8,0.8-0.8h3.5c0.4,0,0.8,0.4,0.8,0.8v12.3
				C33.3,49.2,33,49.6,32.5,49.6z"/>
		</g>
	</g>
</g>
</svg>
