<?xml version="1.0" encoding="utf-8"?>
<!-- Generator: Adobe Illustrator 19.1.0, SVG Export Plug-In . SVG Version: 6.00 Build 0)  -->
<!DOCTYPE svg PUBLIC "-//W3C//DTD SVG 1.1//EN" "http://www.w3.org/Graphics/SVG/1.1/DTD/svg11.dtd">
<svg version="1.1" id="Layer_1" xmlns="http://www.w3.org/2000/svg" xmlns:xlink="http://www.w3.org/1999/xlink" x="0px" y="0px"
	 viewBox="0 0 63.2 63.2" style="enable-background:new 0 0 63.2 63.2;" xml:space="preserve">
<style type="text/css">
	.st0{fill:#2F302C;}
</style>
<g>
	<g>
		<path class="st0" d="M13.9,54.8H8.4c-0.6,0-1-0.5-1-1V29.3c0-0.6,0.5-1,1-1h5.5c0.6,0,1,0.5,1,1v24.5
			C14.9,54.4,14.4,54.8,13.9,54.8z"/>
	</g>
	<g>
		<path class="st0" d="M27.6,54.8h-5.5c-0.6,0-1-0.5-1-1V20.3c0-0.6,0.5-1,1-1h5.5c0.6,0,1,0.5,1,1v33.5
			C28.6,54.4,28.2,54.8,27.6,54.8z"/>
	</g>
	<g>
		<path class="st0" d="M40.6,54.8h-5.5c-0.6,0-1-0.5-1-1V10.5c0-0.6,0.5-1,1-1h5.5c0.6,0,1,0.5,1,1v43.3
			C41.6,54.4,41.1,54.8,40.6,54.8z"/>
	</g>
	<g>
		<path class="st0" d="M54.1,54.8h-5.5c-0.6,0-1-0.5-1-1V25.3c0-0.6,0.5-1,1-1h5.5c0.6,0,1,0.5,1,1v28.5
			C55.1,54.4,54.7,54.8,54.1,54.8z"/>
	</g>
</g>
</svg>
