<?xml version="1.0" encoding="utf-8"?>
<!-- Generator: Adobe Illustrator 19.1.0, SVG Export Plug-In . SVG Version: 6.00 Build 0)  -->
<!DOCTYPE svg PUBLIC "-//W3C//DTD SVG 1.1//EN" "http://www.w3.org/Graphics/SVG/1.1/DTD/svg11.dtd">
<svg version="1.1" id="Layer_1" xmlns="http://www.w3.org/2000/svg" xmlns:xlink="http://www.w3.org/1999/xlink" x="0px" y="0px"
	 viewBox="-460 262.6 37.6 35.4" style="enable-background:new -460 262.6 37.6 35.4;" xml:space="preserve">
<style type="text/css">
	.st0{fill:#2F302C;}
	.st1{fill:#FFFFFF;}
</style>
<g>
	<path class="st0" d="M-426.1,288.1l-3.1,3.1l-10.6-10.6c1.4-2,2-4.1,1.9-6.5c-0.2-4.3-2.2-7.5-5.9-9.4c-3.9-2-8-1.7-11.7,1
		l-1.7,1.6l-0.1,0.2c-1.7,2.1-2.6,4.5-2.5,7.2c0.1,3.8,1.8,6.8,5,9c1.8,1.2,3.7,1.8,5.8,1.8c0.5,0,0.9,0,1.4-0.1
		c1.7-0.2,3.3-0.8,4.7-1.7l13.7,13.7l6.2-6.2L-426.1,288.1z M-443.9,279.7c-1.3,1.3-3.1,2.3-5,2.3c0,0,0,0-0.1,0c-1.9,0-3.7-1-5-2.4
		c-2.7-2.8-2.7-7.4,0.1-10.2c1.3-1.3,3.2-2.1,5-2.1c1.8,0,3.7,0.7,5,2c1.4,1.4,2.1,3.2,2.1,5.1
		C-441.8,276.5-442.6,278.4-443.9,279.7z"/>
	
		<rect x="-433.2" y="284.6" transform="matrix(0.7071 0.7071 -0.7071 0.7071 76.3966 388.7318)" class="st0" width="4.4" height="4"/>
</g>
<path class="st1" d="M-445.7,277.9c-1,0.9-2.1,1.4-3.4,1.4c-0.9,0-1.5-0.6-1.6-1.4c-0.1-0.8,0.5-1.5,1.4-1.6c1.1,0,2-0.9,2-2
	c0-0.9,0.7-1.4,1.5-1.4c0.8,0,1.4,0.7,1.4,1.6C-444.3,275.8-444.8,277-445.7,277.9z"/>
</svg>
