<?xml version="1.0" encoding="utf-8"?>
<!-- Generator: Adobe Illustrator 19.1.0, SVG Export Plug-In . SVG Version: 6.00 Build 0)  -->
<!DOCTYPE svg PUBLIC "-//W3C//DTD SVG 1.1//EN" "http://www.w3.org/Graphics/SVG/1.1/DTD/svg11.dtd">
<svg version="1.1" id="Layer_1" xmlns="http://www.w3.org/2000/svg" xmlns:xlink="http://www.w3.org/1999/xlink" x="0px" y="0px"
	 viewBox="0 0 37.6 34.3" enable-background="new 0 0 37.6 34.3" xml:space="preserve">
<g>
	<path d="M37.1,28l-3.1-3.1L30.8,28l-1.6-1.6l2.8-2.8l-3.1-3.1l-2.8,2.8l-5.8-5.8c1.4-2,2-4.1,1.9-6.5c-0.2-4.3-2.2-7.5-5.9-9.4
		c-3.9-2-8-1.7-11.7,1L2.8,4.1L2.7,4.3c-1.7,2.1-2.6,4.5-2.5,7.2c0.1,3.8,1.8,6.8,5,9c1.8,1.2,3.7,1.8,5.8,1.8c0.5,0,0.9,0,1.4-0.1
		c1.7-0.2,3.3-0.8,4.7-1.7l13.7,13.7L37.1,28z M11.2,18.5C11.1,18.5,11.1,18.5,11.2,18.5c-2,0-3.8-0.8-5.1-2.2
		C3.3,13.5,3.4,8.9,6.2,6.2c1.3-1.3,3.2-2,5-2c1.8,0,3.7,0.7,5,2c1.4,1.4,2.1,3.2,2.1,5.1c0,1.9-0.8,3.8-2.1,5.1
		C14.8,17.7,13,18.5,11.2,18.5z"/>
	<path fill="#FFFFFF" d="M14.4,14.7c-1,0.9-2.1,1.4-3.4,1.4c-0.9,0-1.5-0.6-1.6-1.4c-0.1-0.8,0.5-1.5,1.4-1.6c1.1,0,2-0.9,2-2
		c0-0.9,0.7-1.4,1.5-1.4c0.8,0,1.4,0.7,1.4,1.6C15.8,12.6,15.3,13.8,14.4,14.7z"/>
</g>
</svg>
