<?xml version="1.0" encoding="utf-8"?>
<!-- Generator: Adobe Illustrator 19.1.0, SVG Export Plug-In . SVG Version: 6.00 Build 0)  -->
<!DOCTYPE svg PUBLIC "-//W3C//DTD SVG 1.1//EN" "http://www.w3.org/Graphics/SVG/1.1/DTD/svg11.dtd">
<svg version="1.1" id="Layer_1" xmlns="http://www.w3.org/2000/svg" xmlns:xlink="http://www.w3.org/1999/xlink" x="0px" y="0px"
	 viewBox="0 0 208 50" style="enable-background:new 0 0 208 50;" xml:space="preserve">
<style type="text/css">
	.st0{fill:#FFFFFF;}
</style>
<g>
	<path class="st0" d="M21.7,40.2C18.2,46.5,7,45.1,3.9,37.4C1.8,32,2,26.7,5.8,22.1c3.3-4.1,8.4-5.5,13.4-3.8
		c0.2,0.1,0.4,0.1,0.7,0.2c0-4.5,0-8.9,0-13.3c3,0,6,0,9,0c0,0.5,0,1,0,1.4c0,9.5,0,19,0,28.5c0,0.4,0,0.7,0,1.1
		c0,2,0.1,2.1,2.1,2.6c0,1.4,0,2.9,0,4.3c0,0.2-0.3,0.6-0.5,0.6c-1.9,0.1-3.7,0.4-5.6,0.2C23,43.7,21.9,42.3,21.7,40.2z M20.1,29.6
		C20.1,29.6,20.1,29.6,20.1,29.6c0-0.7-0.1-1.4,0-2.1c0.2-1.1-0.3-1.6-1.3-1.8c-0.2,0-0.5-0.1-0.7-0.2c-2.7-0.5-5,0.7-5.8,3
		c-0.5,1.5-0.5,3-0.1,4.5c0.6,2.3,2.4,3.5,4.6,3.2c1.9-0.2,3.3-1.8,3.4-4.1C20.1,31.3,20.1,30.5,20.1,29.6z"/>
	<path class="st0" d="M91.6,40.2c-2.7,4.1-8.5,4.6-11.9,3.2c-3.7-1.5-5.8-4.8-5.4-8.8c0.3-3.5,2.9-6.1,6.8-6.8
		c2.9-0.6,4.9-0.3,8.6,1c0.5-2.6-0.3-3.9-2.9-4.4c-3.2-0.6-6.3-0.3-9.5,1c-0.4-2.1-0.7-4.1-1-6.1c2.2-1,4.4-1.4,6.6-1.6
		c3.3-0.3,6.6-0.3,9.8,0.9c3.5,1.3,5.6,4.1,5.7,7.9c0.1,3.2,0,6.4,0.1,9.6c0,1.9,0.3,2.3,2.3,2.7c0,1.4,0,2.8,0,4.2
		c0,0.2-0.3,0.7-0.5,0.7c-1.7,0.1-3.4,0.4-5.1,0.2C93.2,43.7,92,42.3,91.6,40.2z M89.7,34.1c-1.6-1-3.4-1.7-5.4-1.1
		c-1.1,0.4-1.7,1.3-1.6,2.5c0.1,1,0.8,1.8,1.9,2C86.9,38,89.3,36.4,89.7,34.1z"/>
	<path class="st0" d="M64.8,32.9c-5.4,0-10.6,0-15.8,0c0.2,1.7,1.1,2.8,2.6,3.4c2.1,0.9,4.2,0.8,6.4,0.5c2-0.3,3.9-0.8,5.9-1.3
		c0.3,2,0.6,4.1,1,6.4c-2,0.6-3.9,1.2-5.9,1.7c-3.9,0.8-7.7,0.7-11.4-0.9c-5.3-2.2-8.1-7.5-7.5-13.5c0.9-8.7,8.3-12.3,14.6-11.7
		c2.3,0.2,4.4,0.6,6.3,1.9c3.2,2.1,4.4,5.2,4.4,8.9C65.3,29.8,65,31.3,64.8,32.9z M57.1,27.7c0.2-2.1-0.9-3.4-3.2-3.6
		c-2.2-0.3-4.5,1.4-4.7,3.6C51.8,27.7,54.4,27.7,57.1,27.7z"/>
	<path class="st0" d="M130.3,26.3c-1.9-1.1-3.7-1.5-5.6-1.1c-2.7,0.6-4.3,2.7-4.3,6c0,3.7,0,7.4,0,11c0,0.4,0,0.8,0,1.2
		c-3,0-5.8,0-8.8,0c0-0.4,0-0.8,0-1.2c0-5.5,0-11,0-16.6c0-2-0.3-2.4-2.2-2.7c0-1.6,0-3.2,0-4.8c2.6-0.6,5.2-0.9,7.8-0.1
		c1.6,0.5,2.2,1.2,3,3.3c1-2,2.5-3.1,4.6-3.6c2-0.5,4-0.4,5.9,0.4c1.4,0.6,1.4,0.7,1.1,2.1C131.3,22.3,130.8,24.3,130.3,26.3z"/>
</g>
<path class="st0" d="M179.1,40.4c-3.5,6.3-14.7,4.9-17.7-2.8c-2.1-5.4-1.9-10.6,1.8-15.3c3.3-4.1,8.4-5.5,13.4-3.8
	c0.2,0.1,0.4,0.1,0.7,0.2c0-4.5,0-8.9,0-13.3c3,0,6,0,9,0c0,0.5,0,1,0,1.4c0,9.5,0,19,0,28.5c0,0.4,0,0.7,0,1.1c0,2,0.1,2.1,2.1,2.6
	c0,1.4,0,2.9,0,4.3c0,0.2-0.3,0.6-0.5,0.6c-1.9,0.1-3.7,0.4-5.6,0.2C180.4,43.8,179.3,42.5,179.1,40.4z M177.5,29.8
	C177.5,29.8,177.6,29.8,177.5,29.8c0-0.7-0.1-1.4,0-2.1c0.2-1.1-0.3-1.6-1.3-1.8c-0.2,0-0.5-0.1-0.7-0.2c-2.7-0.5-5,0.7-5.8,3
	c-0.5,1.5-0.5,3-0.1,4.5c0.6,2.3,2.4,3.5,4.6,3.2c1.9-0.2,3.3-1.8,3.4-4.1C177.6,31.5,177.5,30.7,177.5,29.8z"/>
<path class="st0" d="M199.4,34.2c3,0,5.3,2.3,5.3,5.2c0,2.9-2.3,5.2-5.3,5.2c-3,0-5.3-2.3-5.3-5.2C194.1,36.6,196.4,34.2,199.4,34.2
	z"/>
</svg>
