<?xml version="1.0" encoding="utf-8"?>
<!-- Generator: Adobe Illustrator 19.1.0, SVG Export Plug-In . SVG Version: 6.00 Build 0)  -->
<!DOCTYPE svg PUBLIC "-//W3C//DTD SVG 1.1//EN" "http://www.w3.org/Graphics/SVG/1.1/DTD/svg11.dtd">
<svg version="1.1" id="Layer_1" xmlns="http://www.w3.org/2000/svg" xmlns:xlink="http://www.w3.org/1999/xlink" x="0px" y="0px"
	 viewBox="0 0 28.4 44.5" enable-background="new 0 0 28.4 44.5" xml:space="preserve">
<path fill="#2F302C" d="M24.4,44.4c-6.8,0-13.5,0-20.3,0c0.1-1.2,0.2-2.3,0.3-3.4C5,36,5.6,31.2,6.2,26.3c0-0.4-0.3-0.9-0.6-1.2
	c-6.1-4.9-7.2-13.6-2.3-19.7c3.6-4.5,8.4-6.2,14-5c5.6,1.2,9.2,4.8,10.6,10.4c1.4,5.6-0.4,10.4-4.8,14.2c-0.6,0.5-0.8,0.9-0.7,1.7
	c0.7,5.4,1.3,10.8,1.9,16.2C24.4,43.3,24.4,43.8,24.4,44.4z"/>
</svg>
