<?xml version="1.0" encoding="utf-8"?>
<!-- Generator: Adobe Illustrator 19.1.0, SVG Export Plug-In . SVG Version: 6.00 Build 0)  -->
<!DOCTYPE svg PUBLIC "-//W3C//DTD SVG 1.1//EN" "http://www.w3.org/Graphics/SVG/1.1/DTD/svg11.dtd">
<svg version="1.1" id="Layer_1" xmlns="http://www.w3.org/2000/svg" xmlns:xlink="http://www.w3.org/1999/xlink" x="0px" y="0px"
	 viewBox="0 0 71.7 71.7" enable-background="new 0 0 71.7 71.7" xml:space="preserve">
<g>
	<g>
		<path d="M39.9,1.6c7.8,1.2,14.6,4.4,20.2,9.9C66,17.4,69.5,24.6,70.2,33c1,11-2.4,20.5-10.2,28.4c-6.6,6.7-14.8,10.1-24.3,10.3
			c-9.9,0.2-18.4-3.3-25.4-10.1C4.8,55.9,1.3,49.2,0.3,41.3c-1.4-11.4,1.9-21.4,9.9-29.6c5.8-6,13-9.3,21.3-10.2
			c0.1,0,0.3,0,0.5-0.1C32.1,1.3,35.4,0.9,39.9,1.6z M61.6,37.2c0.5-13.8-10.2-26.5-25.4-27.2C22.2,9.5,9.5,20.2,8.8,35.4
			C8.2,49.6,19,62.2,34,62.9C48.5,63.6,61.1,52.3,61.6,37.2z"/>
		<path d="M35.2,38.6c2.9,0.1,5.5,1.1,7.6,3.1c1.4,1.3,1.5,3.3,0.3,4.7c-1.2,1.4-3.3,1.6-4.7,0.2c-1.9-1.8-4.6-1.7-6.5,0
			c-1.4,1.3-3.4,1.2-4.6-0.2c-1.2-1.4-1.1-3.4,0.3-4.7C29.7,39.6,32.3,38.7,35.2,38.6z"/>
		<path d="M25.3,31c0,1.8-1.5,3.3-3.4,3.3c-1.8,0-3.3-1.5-3.2-3.4c0-1.8,1.5-3.2,3.3-3.2C23.8,27.7,25.3,29.2,25.3,31z"/>
		<path d="M51.7,30.9c0,1.8-1.4,3.3-3.3,3.3c-1.8,0-3.3-1.5-3.3-3.3c0-1.8,1.5-3.3,3.3-3.3C50.3,27.7,51.7,29.1,51.7,30.9z"/>
	</g>
</g>
</svg>
