<?xml version="1.0" encoding="utf-8"?>
<!-- Generator: Adobe Illustrator 19.1.0, SVG Export Plug-In . SVG Version: 6.00 Build 0)  -->
<!DOCTYPE svg PUBLIC "-//W3C//DTD SVG 1.1//EN" "http://www.w3.org/Graphics/SVG/1.1/DTD/svg11.dtd">
<svg version="1.1" id="Layer_1" xmlns="http://www.w3.org/2000/svg" xmlns:xlink="http://www.w3.org/1999/xlink" x="0px" y="0px"
	 viewBox="0 0 71.7 71.7" enable-background="new 0 0 71.7 71.7" xml:space="preserve">
<g>
	<g>
		<path d="M40.7,1.1C55,3.4,64.9,11.4,69.4,25.2c4.2,12.9,1.3,24.7-7.9,34.7c-5.3,5.9-12.1,9.4-19.9,10.6
			c-10.1,1.5-19.3-0.8-27.4-7.2C7.6,58.1,3.3,51.4,1.7,43.2c-2.4-12,0.6-22.7,9-31.6C16.6,5.3,24,1.8,32.5,0.9c0.1,0,0.2,0,0.4-0.1
			C32.9,0.8,36.7,0.4,40.7,1.1z M62.4,35.8c0-14.3-11.8-26.2-26.1-26.3C21.6,9.4,9.9,21.1,9.7,35.5C9.5,50.2,21.2,62.1,35.8,62.2
			C50.6,62.3,62.4,50.5,62.4,35.8z"/>
		<path d="M36,47c-4.5,0-8.1-3.8-7.9-8.3c0.1-2.1,1.7-3,3.5-2.1c0.4,0.2,0.7,0.4,1.1,0.6c2.2,1.3,4.4,1.3,6.7,0
			c0.4-0.2,0.7-0.4,1.1-0.6c1.9-0.9,3.4,0,3.5,2.1C44.1,43.3,40.5,47,36,47z"/>
		<path d="M26.1,30.4c0,1.8-1.5,3.3-3.4,3.2c-1.8,0-3.2-1.5-3.2-3.4c0-1.8,1.5-3.2,3.3-3.2C24.7,27.1,26.1,28.6,26.1,30.4z"/>
		<path d="M45.9,30.4c0-1.8,1.5-3.3,3.3-3.3c1.8,0,3.3,1.5,3.3,3.3c0,1.8-1.4,3.2-3.2,3.2C47.4,33.7,45.9,32.2,45.9,30.4z"/>
	</g>
</g>
</svg>
