<?xml version="1.0" encoding="utf-8"?>
<!-- Generator: Adobe Illustrator 19.1.0, SVG Export Plug-In . SVG Version: 6.00 Build 0)  -->
<!DOCTYPE svg PUBLIC "-//W3C//DTD SVG 1.1//EN" "http://www.w3.org/Graphics/SVG/1.1/DTD/svg11.dtd">
<svg version="1.1" id="Layer_1" xmlns="http://www.w3.org/2000/svg" xmlns:xlink="http://www.w3.org/1999/xlink" x="0px" y="0px"
	 viewBox="0 0 54.4 16.1" enable-background="new 0 0 54.4 16.1" xml:space="preserve">
<g>
	<path fill="#FFFFFF" d="M8.2,14.5c-1.5,2.6-6.1,2-7.4-1.2C-0.1,11.1,0,8.9,1.6,6.9C2.9,5.2,5,4.7,7.1,5.3c0.1,0,0.2,0,0.3,0.1
		c0-1.9,0-3.7,0-5.5c1.3,0,2.5,0,3.7,0c0,0.2,0,0.4,0,0.6c0,3.9,0,7.9,0,11.8c0,0.1,0,0.3,0,0.4c0,0.8,0,0.9,0.9,1.1
		c0,0.6,0,1.2,0,1.8c0,0.1-0.1,0.2-0.2,0.3c-0.8,0.1-1.6,0.2-2.3,0.1C8.7,15.9,8.3,15.4,8.2,14.5z M7.5,10.1
		C7.5,10.1,7.5,10.1,7.5,10.1c0-0.3,0-0.6,0-0.9C7.6,8.7,7.4,8.5,7,8.5c-0.1,0-0.2,0-0.3-0.1C5.6,8.2,4.6,8.7,4.3,9.7
		c-0.2,0.6-0.2,1.3,0,1.9c0.2,0.9,1,1.4,1.9,1.3c0.8-0.1,1.4-0.8,1.4-1.7C7.5,10.8,7.5,10.4,7.5,10.1z"/>
	<path fill="#FFFFFF" d="M37.3,14.5c-1.1,1.7-3.6,1.9-5,1.3c-1.5-0.6-2.4-2-2.3-3.7c0.1-1.5,1.2-2.5,2.8-2.8c1.2-0.2,2-0.1,3.6,0.4
		c0.2-1.1-0.1-1.6-1.2-1.8c-1.3-0.2-2.6-0.1-3.9,0.4c-0.1-0.9-0.3-1.7-0.4-2.6c0.9-0.4,1.8-0.6,2.8-0.7C35,5,36.4,5,37.7,5.5
		c1.5,0.5,2.3,1.7,2.4,3.3c0,1.3,0,2.7,0,4c0,0.8,0.1,1,0.9,1.1c0,0.6,0,1.2,0,1.8c0,0.1-0.1,0.3-0.2,0.3c-0.7,0.1-1.4,0.2-2.1,0.1
		C37.9,15.9,37.4,15.3,37.3,14.5z M36.5,11.9c-0.7-0.4-1.4-0.7-2.2-0.5c-0.5,0.1-0.7,0.6-0.7,1c0,0.4,0.3,0.7,0.8,0.8
		C35.3,13.6,36.3,12.9,36.5,11.9z"/>
	<path fill="#FFFFFF" d="M26.1,11.5c-2.2,0-4.4,0-6.6,0c0.1,0.7,0.5,1.2,1.1,1.4c0.9,0.4,1.8,0.4,2.7,0.2c0.8-0.1,1.6-0.4,2.5-0.5
		c0.1,0.8,0.3,1.7,0.4,2.7c-0.8,0.2-1.6,0.5-2.4,0.7c-1.6,0.4-3.2,0.3-4.8-0.4c-2.2-0.9-3.4-3.1-3.1-5.6c0.4-3.6,3.4-5.1,6.1-4.9
		c0.9,0.1,1.8,0.3,2.6,0.8c1.3,0.9,1.8,2.2,1.8,3.7C26.3,10.2,26.2,10.8,26.1,11.5z M22.9,9.3c0.1-0.9-0.4-1.4-1.3-1.5
		c-0.9-0.1-1.9,0.6-2,1.5C20.7,9.3,21.8,9.3,22.9,9.3z"/>
	<path fill="#FFFFFF" d="M53.4,8.7c-0.8-0.5-1.5-0.6-2.3-0.4c-1.1,0.3-1.8,1.1-1.8,2.5c0,1.5,0,3.1,0,4.6c0,0.2,0,0.3,0,0.5
		c-1.2,0-2.4,0-3.6,0c0-0.2,0-0.3,0-0.5c0-2.3,0-4.6,0-6.9c0-0.8-0.1-1-0.9-1.1c0-0.7,0-1.3,0-2c1.1-0.2,2.2-0.4,3.3,0
		c0.7,0.2,0.9,0.5,1.3,1.4c0.4-0.8,1.1-1.3,1.9-1.5C51.9,5,52.7,5,53.5,5.4c0.6,0.2,0.6,0.3,0.5,0.9C53.8,7,53.6,7.9,53.4,8.7z"/>
</g>
</svg>
