<?xml version="1.0" encoding="utf-8"?>
<!-- Generator: Adobe Illustrator 19.1.0, SVG Export Plug-In . SVG Version: 6.00 Build 0)  -->
<!DOCTYPE svg PUBLIC "-//W3C//DTD SVG 1.1//EN" "http://www.w3.org/Graphics/SVG/1.1/DTD/svg11.dtd">
<svg version="1.1" id="Layer_1" xmlns="http://www.w3.org/2000/svg" xmlns:xlink="http://www.w3.org/1999/xlink" x="0px" y="0px"
	 viewBox="0 0 28.2 25.7" enable-background="new 0 0 28.2 25.7" xml:space="preserve">
<path d="M12.9,23c-2.3,4.2-9.7,3.2-11.7-1.9c-1.4-3.6-1.3-7,1.2-10.1C4.6,8.3,8,7.4,11.3,8.5c0.1,0,0.3,0.1,0.5,0.1c0-3,0-5.9,0-8.8
	c2,0,3.9,0,5.9,0c0,0.3,0,0.6,0,0.9c0,6.3,0,12.6,0,18.8c0,0.2,0,0.5,0,0.7c0,1.3,0.1,1.4,1.4,1.7c0,0.9,0,1.9,0,2.8
	c0,0.1-0.2,0.4-0.3,0.4c-1.2,0.1-2.5,0.3-3.7,0.1C13.8,25.3,13.1,24.4,12.9,23z M11.9,16C11.9,16,11.9,16,11.9,16c0-0.5,0-0.9,0-1.4
	c0.1-0.7-0.2-1.1-0.9-1.2c-0.2,0-0.3-0.1-0.5-0.1c-1.8-0.4-3.3,0.4-3.9,2c-0.3,1-0.3,2-0.1,3c0.4,1.5,1.6,2.3,3,2.1
	c1.3-0.1,2.2-1.2,2.2-2.7C11.9,17.2,11.9,16.6,11.9,16z"/>
<g>
	<path d="M25.2,25.7c-1.8,0-3.1-1.2-3.1-2.8c0-1.7,1.3-2.9,3.1-2.9c1.8,0,3.1,1.2,3.1,2.9C28.3,24.5,27,25.7,25.2,25.7z"/>
</g>
</svg>
