<?xml version="1.0" encoding="utf-8"?>
<!-- Generator: Adobe Illustrator 19.1.0, SVG Export Plug-In . SVG Version: 6.00 Build 0)  -->
<!DOCTYPE svg PUBLIC "-//W3C//DTD SVG 1.1//EN" "http://www.w3.org/Graphics/SVG/1.1/DTD/svg11.dtd">
<svg version="1.1" id="Layer_1" xmlns="http://www.w3.org/2000/svg" xmlns:xlink="http://www.w3.org/1999/xlink" x="0px" y="0px"
	 viewBox="0 0 12.3 16.1" enable-background="new 0 0 12.3 16.1" xml:space="preserve">
<g>
	<path fill="#FFFFFF" d="M8.2,14.5c-1.5,2.6-6.1,2-7.4-1.2C-0.1,11.1,0,8.9,1.6,6.9C2.9,5.2,5,4.7,7.1,5.3c0.1,0,0.2,0,0.3,0.1
		c0-1.9,0-3.7,0-5.5c1.3,0,2.5,0,3.7,0c0,0.2,0,0.4,0,0.6c0,3.9,0,7.9,0,11.8c0,0.1,0,0.3,0,0.4c0,0.8,0,0.9,0.9,1.1
		c0,0.6,0,1.2,0,1.8c0,0.1-0.1,0.2-0.2,0.3c-0.8,0.1-1.6,0.2-2.3,0.1C8.7,15.9,8.3,15.4,8.2,14.5z M7.5,10.1
		C7.5,10.1,7.5,10.1,7.5,10.1c0-0.3,0-0.6,0-0.9C7.6,8.7,7.4,8.5,7,8.5c-0.1,0-0.2,0-0.3-0.1C5.6,8.2,4.6,8.7,4.3,9.7
		c-0.2,0.6-0.2,1.3,0,1.9c0.2,0.9,1,1.4,1.9,1.3c0.8-0.1,1.4-0.8,1.4-1.7C7.5,10.8,7.5,10.4,7.5,10.1z"/>
</g>
</svg>
